<?xml version="1.0" standalone="no"?>
<!DOCTYPE svg PUBLIC "-//W3C//DTD SVG 20010904//EN"
 "http://www.w3.org/TR/2001/REC-SVG-20010904/DTD/svg10.dtd">
<svg version="1.0" xmlns="http://www.w3.org/2000/svg"
 width="800.000000pt" height="800.000000pt" viewBox="0 0 800.000000 800.000000"
 preserveAspectRatio="xMidYMid meet">
<metadata>
Created by potrace 1.11, written by Peter Selinger 2001-2013
</metadata>
<g transform="translate(0.000000,800.000000) scale(0.100000,-0.100000)"
fill="#000000" stroke="none">
<path d="M4565 6180 c-10 -16 -72 -52 -140 -82 -33 -15 -121 -39 -195 -53
-127 -26 -145 -27 -335 -22 -195 5 -351 27 -427 58 -22 9 -35 8 -62 -5 -44
-21 -52 -20 -70 6 -14 20 -15 12 -14 -98 l1 -119 42 -41 c47 -46 113 -74 242
-105 122 -29 230 -38 413 -34 271 6 465 56 538 140 l31 34 -3 161 c-4 157 -7
183 -21 160z"/>
<path d="M4530 5778 c-25 -16 -36 -27 -25 -24 11 3 32 8 48 12 17 4 27 13 27
25 0 10 -1 19 -2 18 -2 0 -23 -14 -48 -31z"/>
<path d="M3000 5717 c0 -7 -11 -29 -25 -50 -63 -92 -303 -166 -657 -202 -53
-6 -59 -9 -64 -33 -18 -83 -23 -90 -80 -111 -30 -12 -80 -21 -112 -22 -146 -3
-215 53 -286 234 -14 34 -17 37 -37 27 -11 -7 -30 -9 -42 -6 -20 5 -20 3 -13
-121 8 -148 16 -164 103 -210 205 -109 598 -135 927 -62 50 11 107 22 126 23
46 4 127 24 154 38 27 14 36 28 29 45 -4 10 -11 8 -32 -8 -23 -19 -85 -49 -99
-49 -3 0 14 13 39 29 24 16 58 44 74 61 32 33 32 33 20 180 -1 19 -3 83 -4
143 -1 64 -5 107 -11 107 -5 0 -10 -6 -10 -13z m-125 -517 c-3 -5 -14 -10 -23
-9 -14 0 -13 2 3 9 27 11 27 11 20 0z"/>
<path d="M4848 5530 c-1 -85 -1 -166 0 -180 5 -82 180 -176 405 -217 119 -22
486 -25 597 -4 149 27 287 89 323 145 12 17 17 69 21 212 6 157 4 185 -6 165
-53 -99 -354 -191 -628 -192 -110 -1 -292 23 -430 55 -128 31 -226 83 -260
139 l-20 32 -2 -155z"/>
<path d="M6950 5241 c-273 -114 -3010 -1224 -3042 -1235 -17 -5 -18 -75 -18
-1280 0 -1010 -3 -1275 -12 -1279 -7 -3 -1 -6 14 -6 15 -1 69 21 120 48 109
57 1094 555 1283 648 72 35 137 68 145 73 8 5 137 71 285 146 149 75 365 185
480 244 116 59 323 164 462 234 139 69 255 131 258 136 6 9 14 130 50 740 3
52 7 122 10 155 3 33 7 105 10 160 3 55 13 204 21 330 8 127 19 311 24 410 5
99 12 209 14 245 11 138 18 280 14 279 -1 0 -55 -22 -118 -48z"/>
<path d="M6160 5225 c-16 -20 -126 -75 -149 -75 -8 0 -12 -3 -9 -6 10 -10 170
19 175 32 2 7 3 25 1 40 -3 26 -4 26 -18 9z"/>
<path d="M4606 5086 c-25 -73 -62 -105 -167 -146 -167 -64 -370 -100 -568
-100 l-108 0 -7 -31 c-3 -17 -6 -46 -6 -65 0 -45 -20 -61 -85 -69 -142 -18
-254 48 -316 187 -16 35 -29 68 -29 74 0 11 -30 29 -35 22 -11 -16 -40 -107
-51 -163 -7 -38 -16 -79 -19 -90 -13 -43 103 -127 230 -168 144 -47 244 -60
475 -63 244 -3 270 1 452 58 106 33 237 110 254 150 7 14 8 104 5 242 l-6 219
-19 -57z"/>
<path d="M4590 4609 c-41 -33 -120 -71 -210 -101 l-85 -28 60 6 c66 6 182 28
233 45 30 10 32 14 32 55 0 24 -1 44 -2 44 -2 0 -14 -10 -28 -21z"/>
</g>
</svg>
